<?xml version="1.0" standalone="no"?>
<!DOCTYPE svg PUBLIC "-//W3C//DTD SVG 1.1//EN"
"http://www.w3.org/Graphics/SVG/1.1/DTD/svg11.dtd">

<svg width="360" height="154" view_box="0 0 360 154"
xmlns="http://www.w3.org/2000/svg"
xmlns:link="http://www.w3.org/1999/xlink">\n\n<desc>Généré par Mocodo 2.3.5 le Mon, 22 May 2017 07:11:24</desc>

<rect id="frame" x="0" y="0" width="360" height="154" fill="#ffffbf" stroke="none" stroke-width="0"/>

<!-- Association JOUER -->
<line x1="74" y1="77" x2="199" y2="77" stroke="#f46d43" stroke-width="2"/>
<text x="144" y="94.0" fill="#3288bd" font-family="Verdana" font-size="12">0,N</text>
<line x1="305" y1="77" x2="199" y2="77" stroke="#f46d43" stroke-width="2"/>
<text x="233" y="94.0" fill="#3288bd" font-family="Verdana" font-size="12">2,2</text>
<g id="association-JOUER">
	<path d="M 213 52 a 14 14 90 0 1 14 14 V 77 h -56 V 66 a 14 14 90 0 1 14 -14" fill="#fdae61" stroke="#fdae61" stroke-width="0"/>
	<path d="M 227 77.0 v 11 a 14 14 90 0 1 -14 14 H 185 a 14 14 90 0 1 -14 -14 V 77.0 H 56" fill="#fee08b" stroke="#fee08b" stroke-width="0"/>
	<rect x="171" y="52" width="56" height="50" fill="none" rx="14" stroke="#f46d43" stroke-width="2"/>
	<line x1="171" y1="77" x2="227" y2="77" stroke="#f46d43" stroke-width="1"/>
	<text x="178" y="69.7" fill="#000000" font-family="Verdana" font-size="12">JOUER</text>
</g>

<!-- Entity JOUEUR -->
<g id="entity-JOUEUR">
	<g id="frame-JOUEUR">
		<rect x="9" y="26" width="130" height="25" fill="#abdda4" stroke="#abdda4" stroke-width="0"/>
		<rect x="9" y="51.0" width="130" height="77" fill="#e6f598" stroke="#e6f598" stroke-width="0"/>
		<rect x="9" y="26" width="130" height="102" fill="none" stroke="#66c2a5" stroke-width="2"/>
		<line x1="9" y1="51" x2="139" y2="51" stroke="#66c2a5" stroke-width="1"/>
	</g>
	<text x="49" y="43.7" fill="#000000" font-family="Verdana" font-size="12">JOUEUR</text>
	<text x="14" y="68.7" fill="#000000" font-family="Verdana" font-size="12">num. idJoueur</text>
	<line x1="14" y1="71" x2="101" y2="71" stroke="#000000" stroke-width="1"/>
	<text x="14" y="85.8" fill="#000000" font-family="Verdana" font-size="12">pseudo</text>
	<text x="14" y="102.8" fill="#000000" font-family="Verdana" font-size="12">email</text>
	<text x="14" y="119.8" fill="#000000" font-family="Verdana" font-size="12">annee de naissance</text>
</g>

<!-- Entity PARTIE -->
<g id="entity-PARTIE">
	<g id="frame-PARTIE">
		<rect x="259" y="9" width="92" height="25" fill="#abdda4" stroke="#abdda4" stroke-width="0"/>
		<rect x="259" y="34.0" width="92" height="111" fill="#e6f598" stroke="#e6f598" stroke-width="0"/>
		<rect x="259" y="9" width="92" height="136" fill="none" stroke="#66c2a5" stroke-width="2"/>
		<line x1="259" y1="34" x2="351" y2="34" stroke="#66c2a5" stroke-width="1"/>
	</g>
	<text x="282" y="26.7" fill="#000000" font-family="Verdana" font-size="12">PARTIE</text>
	<text x="264" y="51.7" fill="#000000" font-family="Verdana" font-size="12">num. idPartie</text>
	<line x1="264" y1="54" x2="346" y2="54" stroke="#000000" stroke-width="1"/>
	<text x="264" y="68.7" fill="#000000" font-family="Verdana" font-size="12">date</text>
	<text x="264" y="85.8" fill="#000000" font-family="Verdana" font-size="12">joueur1</text>
	<text x="264" y="102.8" fill="#000000" font-family="Verdana" font-size="12">joueur2</text>
	<text x="264" y="119.8" fill="#000000" font-family="Verdana" font-size="12">gagnant</text>
	<text x="264" y="136.8" fill="#000000" font-family="Verdana" font-size="12">premier coup</text>
</g>
</svg>